<!--?xml version="1.0" standalone="no"?-->
<svg id="sw-js-blob-svg" viewBox="0 0 100 100" xmlns="http://www.w3.org/2000/svg">
    <defs>
        <linearGradient id="sw-gradient" x1="0" x2="1" y1="1" y2="0">
            <stop id="stop1" stop-color="rgba(139, 62, 240, 1)" offset="0%"></stop>
            <stop id="stop2" stop-color="rgba(215.421, 184.367, 255, 1)" offset="100%"></stop>
        </linearGradient>
    </defs>
    <path fill="url(#sw-gradient)"
        d="M17.4,-26.6C21.7,-24.3,23.8,-18.1,26.1,-12.2C28.4,-6.3,30.9,-0.8,30.8,4.9C30.8,10.6,28.2,16.4,23.9,20C19.7,23.7,13.7,25.1,7.8,27C1.9,28.8,-3.9,31.1,-11.4,32C-19,33,-28.2,32.7,-32,27.9C-35.9,23.2,-34.3,13.9,-33.2,6.2C-32.1,-1.5,-31.3,-7.7,-29.1,-13.6C-26.9,-19.5,-23.3,-25.1,-18.3,-27C-13.2,-29,-6.6,-27.2,0,-27.1C6.5,-27.1,13.1,-28.8,17.4,-26.6Z"
        width="100%" height="100%" transform="translate(50 50)" stroke-width="0"
        style="transition: 0.3s;" stroke="url(#sw-gradient)"></path>
</svg>