<!--?xml version="1.0" standalone="no"?-->
<svg id="sw-js-blob-svg" viewBox="0 0 100 100" xmlns="http://www.w3.org/2000/svg">
    <defs>
        <linearGradient id="sw-gradient" x1="0" x2="1" y1="1" y2="0">
            <stop id="stop1" stop-color="rgba(139, 62, 240, 1)" offset="0%"></stop>
            <stop id="stop2" stop-color="rgba(215.421, 184.367, 255, 1)" offset="100%"></stop>
        </linearGradient>
    </defs>
    <path fill="url(#sw-gradient)"
        d="M17.7,-28.3C22,-24.8,23.8,-18.2,27,-12.1C30.1,-5.9,34.6,-0.2,35.3,6.1C36,12.3,32.8,19,28.2,24.4C23.5,29.8,17.4,34,11.2,33.8C5,33.7,-1.1,29.2,-9.2,28.2C-17.2,27.2,-27.2,29.7,-30.9,26.3C-34.6,22.9,-32,13.5,-30.5,6C-29,-1.5,-28.7,-7.2,-28,-14.5C-27.4,-21.8,-26.4,-30.7,-21.7,-34C-16.9,-37.3,-8.5,-35.1,-0.9,-33.7C6.7,-32.3,13.4,-31.8,17.7,-28.3Z"
        width="100%" height="100%" transform="translate(50 50)" stroke-width="0"
        style="transition: 0.3s;" stroke="url(#sw-gradient)"></path>
</svg>