<!--?xml version="1.0" standalone="no"?-->
<svg id="sw-js-blob-svg" viewBox="0 0 100 100" xmlns="http://www.w3.org/2000/svg">
    <defs>
        <linearGradient id="sw-gradient" x1="0" x2="1" y1="1" y2="0">
            <stop id="stop1" stop-color="rgba(139, 62, 240, 1)" offset="0%"></stop>
            <stop id="stop2" stop-color="rgba(215.421, 184.367, 255, 1)" offset="100%"></stop>
        </linearGradient>
    </defs>
    <path fill="url(#sw-gradient)"
        d="M22.1,-33.3C29.4,-29.6,36.7,-24.9,37.5,-18.5C38.2,-12.1,32.3,-4.2,28.5,2.3C24.8,8.7,23.1,13.6,20.1,17.7C17.1,21.8,12.7,25.1,7,29.1C1.4,33.1,-5.6,37.9,-11.7,37.3C-17.9,36.7,-23.2,30.7,-28.9,24.7C-34.5,18.7,-40.6,12.7,-42.3,5.7C-43.9,-1.4,-41.2,-9.5,-36.5,-15.4C-31.9,-21.4,-25.3,-25.2,-18.9,-29.3C-12.4,-33.3,-6.2,-37.5,0.6,-38.4C7.4,-39.3,14.7,-36.9,22.1,-33.3Z"
        width="100%" height="100%" transform="translate(50 50)" stroke-width="0"
        style="transition: 0.3s;" stroke="url(#sw-gradient)"></path>
</svg>