<!--?xml version="1.0" standalone="no"?-->
<svg id="sw-js-blob-svg" viewBox="0 0 100 100" xmlns="http://www.w3.org/2000/svg">
    <defs>
        <linearGradient id="sw-gradient" x1="0" x2="1" y1="1" y2="0">
            <stop id="stop1" stop-color="rgba(139, 62, 240, 1)" offset="0%"></stop>
            <stop id="stop2" stop-color="rgba(215.421, 184.367, 255, 1)" offset="100%"></stop>
        </linearGradient>
    </defs>
    <path fill="url(#sw-gradient)"
        d="M23,-37.6C29,-32,32.5,-24.2,36.2,-16.5C39.9,-8.7,43.7,-0.9,42.6,6.1C41.5,13,35.4,19.2,29.3,24.3C23.2,29.3,17,33.2,10,36.3C2.9,39.5,-5.1,42.1,-11.9,40.2C-18.7,38.4,-24.4,32.2,-26.8,25.4C-29.2,18.7,-28.5,11.3,-30.9,3.6C-33.4,-4.2,-39.2,-12.3,-38.6,-19.3C-38,-26.2,-31.1,-32,-23.6,-36.9C-16.2,-41.7,-8.1,-45.8,0.2,-46.1C8.5,-46.5,17,-43.1,23,-37.6Z"
        width="100%" height="100%" transform="translate(50 50)" stroke-width="0"
        style="transition: 0.3s;" stroke="url(#sw-gradient)"></path>
</svg>